# xmcd CD database file
#
# Track frame offsets:
#	150
#	10655
#	30130
#	51632
#	70878
#	94581
#	114340
#	140814
#	161315
#	171076
#	191457
#	213449
#
# Disc length: 3102 seconds
#
# Revision: 0
# Processed by: cddbd v1.5.2PL0 Copyright (c) Steve Scherf et al.
# Submitted via: CDex 1.51
#
DISCID=990c1c0c
DTITLE=Uri Caine Trio - Siren
DYEAR=2011
DGENRE=Jazz
TTITLE0=Tarshish 
TTITLE1=Interloper
TTITLE2=Siren
TTITLE3=Crossbow
TTITLE4=Smelly
TTITLE5=Succubus
TTITLE6=Green Dolphin Street [Bronislaw Kaper]
TTITLE7=Foolish Me
TTITLE8=Calibrated Thickness
TTITLE9=Hazy Lazy Crazy
TTITLE10=Free Lunch
TTITLE11=Manual Defile
EXTD=YEAR: 2011
EXTT0=
EXTT1=
EXTT2=
EXTT3=
EXTT4=
EXTT5=
EXTT6=
EXTT7=
EXTT8=
EXTT9=
EXTT10=
EXTT11=
PLAYORDER=
